<svg version="1.1" xmlns="http://www.w3.org/2000/svg" xmlns:xlink="http://www.w3.org/1999/xlink" width="24" height="24" viewBox="0,0,256,256"><g fill="#ffffff" fill-rule="nonzero" stroke="none" stroke-width="1" stroke-linecap="butt" stroke-linejoin="miter" stroke-miterlimit="10" stroke-dasharray="" stroke-dashoffset="0" font-family="none" font-weight="none" font-size="none" text-anchor="none" style="mix-blend-mode: normal"><g transform="translate(0,256) scale(0.26667,0.26667)"><path d="M784,-120l-252,-252c-20,16 -43,28.66667 -69,38c-26,9.33333 -53.66667,14 -83,14c-72.66667,0 -134.16667,-25.16667 -184.5,-75.5c-50.33333,-50.33333 -75.5,-111.83333 -75.5,-184.5c0,-72.66667 25.16667,-134.16667 75.5,-184.5c50.33333,-50.33333 111.83333,-75.5 184.5,-75.5c72.66667,0 134.16667,25.16667 184.5,75.5c50.33333,50.33333 75.5,111.83333 75.5,184.5c0,29.33333 -4.66667,57 -14,83c-9.33333,26 -22,49 -38,69l252,252zM380,-400c50,0 92.5,-17.5 127.5,-52.5c35,-35 52.5,-77.5 52.5,-127.5c0,-50 -17.5,-92.5 -52.5,-127.5c-35,-35 -77.5,-52.5 -127.5,-52.5c-50,0 -92.5,17.5 -127.5,52.5c-35,35 -52.5,77.5 -52.5,127.5c0,50 17.5,92.5 52.5,127.5c35,35 77.5,52.5 127.5,52.5z"></path></g></g></svg>