<svg version="1.1" xmlns="http://www.w3.org/2000/svg" xmlns:xlink="http://www.w3.org/1999/xlink" width="16" height="16" viewBox="0,0,256,256"><g fill="#ffffff" fill-rule="nonzero" stroke="none" stroke-width="1" stroke-linecap="butt" stroke-linejoin="miter" stroke-miterlimit="10" stroke-dasharray="" stroke-dashoffset="0" font-family="none" font-weight="none" font-size="none" text-anchor="none" style="mix-blend-mode: normal"><g transform="scale(16,16)"><path d="M0,4.5c0,-0.82843 0.67157,-1.5 1.5,-1.5h13c0.82843,0 1.5,0.67157 1.5,1.5v1.5c0,0.27614 -0.22386,0.5 -0.5,0.5c-0.82843,0 -1.5,0.67157 -1.5,1.5c0,0.82843 0.67157,1.5 1.5,1.5c0.27614,0 0.5,0.22386 0.5,0.5v1.5c0,0.82843 -0.67157,1.5 -1.5,1.5h-13c-0.82843,0 -1.5,-0.67157 -1.5,-1.5v-1.5c0,-0.27614 0.22386,-0.5 0.5,-0.5c0.82843,0 1.5,-0.67157 1.5,-1.5c0,-0.82843 -0.67157,-1.5 -1.5,-1.5c-0.27614,0 -0.5,-0.22386 -0.5,-0.5zM1.5,4c-0.27614,0 -0.5,0.22386 -0.5,0.5v1.05c1.16516,0.2366 2.00251,1.26106 2.00251,2.45c0,1.18894 -0.83734,2.2134 -2.00251,2.45v1.05c0,0.27614 0.22386,0.5 0.5,0.5h13c0.27614,0 0.5,-0.22386 0.5,-0.5v-1.05c-1.16516,-0.2366 -2.00251,-1.26106 -2.00251,-2.45c0,-1.18894 0.83734,-2.2134 2.00251,-2.45v-1.05c0,-0.27614 -0.22386,-0.5 -0.5,-0.5z"></path></g></g></svg>